<svg width="120" height="18" viewBox="0 0 120 18" fill="none" xmlns="http://www.w3.org/2000/svg">
<path d="M119.01 2.24032C119.01 1.84413 118.781 1.67651 118.324 1.67651H117.577V3.65746H117.867V2.80413H118.217L118.735 3.65746H119.071L118.507 2.78889C118.812 2.74317 119.025 2.60603 119.025 2.25556L119.01 2.24032ZM117.867 2.54508V1.93556H118.278C118.492 1.93556 118.705 1.98127 118.705 2.20984C118.705 2.51461 118.476 2.54508 118.233 2.54508H117.867Z" fill="black"/>
<path d="M118.308 0.914307C117.379 0.914307 116.602 1.6762 116.602 2.60572C116.602 3.53525 117.364 4.29715 118.308 4.29715C119.253 4.29715 120 3.53525 120 2.60572C120 1.6762 119.238 0.914307 118.308 0.914307ZM118.308 3.96193C117.562 3.96193 116.952 3.35239 116.952 2.60572C116.952 1.85906 117.562 1.24954 118.308 1.24954C119.055 1.24954 119.649 1.85906 119.649 2.60572C119.649 3.35239 119.055 3.96193 118.308 3.96193Z" fill="black"/>
<path d="M88.9751 0.945115H90.9865V17.1737L80.716 5.69941V16.7623H78.7046V0.533691L88.9751 12.0384V0.960356V0.945115Z" fill="#1D1D1B"/>
<path d="M70.4303 0L63.5122 16.7619H65.7522L67.0779 13.379L67.0627 13.3638L67.8094 11.4591L70.4303 4.69334L73.036 11.4591H67.8094L68.5255 13.3181H73.7522L75.0474 16.7619H77.3179L70.4303 0Z" fill="#1D1D1B"/>
<path d="M16.1829 0.959717V16.7616H14.1257V0.959717H16.1829Z" fill="#1D1D1B"/>
<path d="M24.838 0L17.9199 16.7619H20.1599L21.4856 13.379V13.3638L22.2171 11.4591L24.838 4.69334L27.459 11.4591H22.2171L22.9333 13.3181H28.1599L29.4552 16.7619H31.7256L24.838 0Z" fill="#1D1D1B"/>
<path d="M47.6037 14.3696L40.9142 0.0305176L33.1123 16.7619H35.3523L40.9142 4.81528L46.4914 16.7619H48.7314L54.3085 4.81528L59.8704 16.7619H62.1104L54.3085 0.0305176L47.6037 14.3696Z" fill="#1D1D1B"/>
<path d="M0 16.7616V0.959717H3.99239C9.29524 0.959717 12.3429 4.25114 12.3429 8.86828C12.3429 13.4854 9.31048 16.7769 3.99239 16.7769H0V16.7616ZM2.05714 14.8873H4.06857C8.07619 14.8873 10.2552 12.3578 10.2552 8.85305C10.2552 5.34829 8.07619 2.81877 4.06857 2.81877H2.05714V14.8721V14.8873Z" fill="#1D1D1B"/>
<path d="M99.1845 2.834V16.7769H97.1731V2.834H92.7693V0.959717H103.604V2.834H99.1998H99.1845Z" fill="#1D1D1B"/>
<path d="M115.566 16.7622H105.341V0.945068H115.383V2.80412H107.383V7.81745H114.133V9.69173H107.383V14.9032H115.566V16.7622Z" fill="#1D1D1B"/>
</svg>
