<svg width="100" height="49" viewBox="0 0 100 49" fill="none" xmlns="http://www.w3.org/2000/svg">
<path d="M35.3777 29.4667H70.0778L70.7223 27.3889H33.2444L35.3777 29.4667Z" fill="#007934"/>
<path d="M37.5886 23.5554L39.7331 25.6554H71.2554L71.9109 23.5554H37.5886Z" fill="#007934"/>
<path d="M69.9446 21.8999L67.0779 19.9666H42.1667L44.1445 21.8999H69.9446Z" fill="#007934"/>
<path d="M64.3109 18.0999L60.8665 15.7888H44.5442L46.9331 18.0999H64.3109Z" fill="#007934"/>
<path d="M79.9998 0L74.9331 15.1778H59.9887L62.522 16.8889H87.8443L84.9776 19.0556H56.2442L57.5664 20.7001L82.8109 20.6889L80.1109 22.7223H51.0775L52.7664 24.4223H77.8887L74.8998 26.6779L45.6108 26.7001L47.2775 28.3334H72.7109L69.7554 30.5779L67.5553 37.6779L79.9998 28.689L92.4332 37.6779L87.9887 23.2778L99.9999 15.1778H85.0665L79.9998 0Z" fill="#F5B335"/>
<path d="M5.03335 48.6223H0V40.8445H4.94446V41.7556H1.01111V44.2223H4.33335V45.1445H1.01111V47.7112H5.03335V48.6223Z" fill="black"/>
<path d="M10.7222 41.9891C10.7222 41.9891 9.88882 41.6446 8.87771 41.6446C8.09993 41.6446 7.34437 41.9224 7.34437 42.7002C7.34437 44.3558 11.3333 43.8335 11.3333 46.4446C11.3333 47.6113 10.3999 48.7224 8.53326 48.7224C7.24437 48.7224 6.31104 48.1558 6.31104 48.1558V47.1224C6.31104 47.1224 7.36659 47.8224 8.53326 47.8224C9.29993 47.8224 10.311 47.5113 10.311 46.5113C10.311 44.7669 6.33326 45.2669 6.33326 42.778C6.33326 41.4113 7.51104 40.7224 8.8666 40.7224C10.0777 40.7224 10.7222 41.0557 10.7222 41.0557V41.9891Z" fill="black"/>
<path d="M15.1668 41.7557V48.6113H14.1779V41.7557H12.0112V40.8335H17.3446V41.7557H15.1779H15.1668Z" fill="black"/>
<path d="M19.7112 44.6H21.2112C22.1668 44.6 22.7779 43.9112 22.7779 43.1556C22.7779 42.4 22.189 41.7445 21.3334 41.7445H19.6334V48.6223H18.6445V40.8445H21.3112C22.7557 40.8445 23.7445 41.8667 23.7445 43.1445C23.7445 44.3112 22.7779 45.3334 21.5334 45.3334L24.389 48.6223H23.089L19.7334 44.6112L19.7112 44.6Z" fill="black"/>
<path d="M30.6781 48.6223H25.6448V40.8445H30.5892V41.7556H26.6559V44.2223H29.9781V45.1445H26.6559V47.7112H30.6781V48.6223Z" fill="black"/>
<path d="M36.6669 47.6891V48.6113H31.9558V40.8335H32.9558V47.6891H36.6669Z" fill="black"/>
<path d="M42.6557 47.6891V48.6113H37.9446V40.8335H38.9446V47.6891H42.6557Z" fill="black"/>
<path d="M53.3892 48.6223V40.8445H55.6114C58.2225 40.8445 59.7114 42.4667 59.7114 44.7334C59.7114 47.0001 58.2336 48.6223 55.6114 48.6223H53.3892ZM54.7781 47.3556H55.6558C57.3781 47.3556 58.3225 46.2223 58.3225 44.7334C58.3225 43.2445 57.3781 42.1112 55.6558 42.1112H54.7781V47.3556Z" fill="black"/>
<path d="M66.2557 48.6223H60.989V40.8445H66.1779V42.1556H62.3557V44.0334H65.5779V45.3445H62.3557V47.3223H66.2557V48.6223Z" fill="black"/>
<path d="M72.8668 40.7334C75.1113 40.7334 76.9224 42.5112 76.9224 44.7223C76.9224 46.9334 75.1224 48.7334 72.8668 48.7334C70.6113 48.7334 68.8335 46.9334 68.8335 44.7223C68.8335 42.5112 70.6446 40.7334 72.8668 40.7334ZM72.8668 47.4556C74.3446 47.4556 75.5557 46.2001 75.5557 44.7223C75.5557 43.2445 74.3446 42.0112 72.8668 42.0112C71.3891 42.0112 70.1891 43.2445 70.1891 44.7223C70.1891 46.2001 71.4002 47.4556 72.8668 47.4556Z" fill="black"/>
<path d="M88.3668 40.7334C90.6113 40.7334 92.4224 42.5112 92.4224 44.7223C92.4224 46.9334 90.6224 48.7334 88.3668 48.7334C86.1113 48.7334 84.3335 46.9334 84.3335 44.7223C84.3335 42.5112 86.1446 40.7334 88.3668 40.7334ZM88.3668 47.4556C89.8446 47.4556 91.0557 46.2001 91.0557 44.7223C91.0557 43.2445 89.8446 42.0112 88.3668 42.0112C86.8891 42.0112 85.6891 43.2445 85.6891 44.7223C85.6891 46.2001 86.9002 47.4556 88.3668 47.4556Z" fill="black"/>
<path d="M79.2891 48.6223H77.9336V40.8445H80.8447C82.3669 40.8445 83.3114 41.9 83.3114 43.1778C83.3114 44.3445 82.5558 45.1445 81.6447 45.4223L83.9669 48.6223H82.1669L79.4336 44.4667H80.5669C81.5225 44.4667 81.978 43.9 81.978 43.2889C81.978 42.6778 81.5003 42.1112 80.8225 42.1112H79.2891V48.6112V48.6223Z" fill="black"/>
<path d="M47.0002 40.5557L43.678 48.6224H44.7558L45.3891 46.989V46.9779L45.7447 46.0668L47.0002 42.8112L48.2558 46.0668H45.7447L46.0891 46.9668H48.6002L49.2224 48.6224H50.3113L47.0002 40.5557Z" fill="black"/>
<path d="M37.0444 36.2996H36.411V37.6774H35.3999V33.4885H37.0444C37.9666 33.4885 38.4888 34.1441 38.4888 34.8885C38.4888 35.633 37.9555 36.2996 37.0444 36.2996ZM36.4221 35.3663H36.9888C37.3221 35.3663 37.4888 35.1552 37.4888 34.8996C37.4888 34.6441 37.3221 34.4441 36.9999 34.4441H36.4221V35.3663Z" fill="#F5B335"/>
<path d="M44.5333 36.7331V37.6887H41.6555V33.4998H42.6666V36.7331H44.5222H44.5333Z" fill="#F5B335"/>
<path d="M48.4114 35.9775C48.4114 36.4553 48.7558 36.7664 49.1892 36.7664C49.6225 36.7664 49.9558 36.4553 49.9558 35.9775V33.4998H50.9781V35.9331C50.9781 37.1998 50.0225 37.7442 49.2003 37.7442C48.378 37.7442 47.4114 37.1998 47.4114 35.9331V33.4998H48.4225V35.9775H48.4114Z" fill="#F5B335"/>
<path d="M56.9555 34.6887C56.9555 34.6887 56.4111 34.3776 55.7444 34.3776C55.4777 34.3776 55.2777 34.4776 55.2777 34.6553C55.2777 35.1331 57.2888 35.0442 57.2888 36.4331C57.2888 37.1331 56.6777 37.7442 55.6111 37.7442C54.8333 37.7442 54.2444 37.422 54.2444 37.422V36.3998C54.2444 36.3998 54.8555 36.7998 55.6111 36.7998C55.8888 36.7998 56.2111 36.6998 56.2111 36.4553C56.2111 35.8887 54.2444 36.0331 54.2444 34.6887C54.2444 33.8442 54.9777 33.4331 55.7555 33.4331C56.4666 33.4331 56.9555 33.6887 56.9555 33.6887V34.6887Z" fill="#F5B335"/>
<path d="M63.0666 34.6887C63.0666 34.6887 62.5221 34.3776 61.8555 34.3776C61.5888 34.3776 61.3888 34.4776 61.3888 34.6553C61.3888 35.1331 63.3999 35.0442 63.3999 36.4331C63.3999 37.1331 62.7888 37.7442 61.7221 37.7442C60.9444 37.7442 60.3555 37.422 60.3555 37.422V36.3998C60.3555 36.3998 60.9666 36.7998 61.7221 36.7998C61.9999 36.7998 62.3221 36.6998 62.3221 36.4553C62.3221 35.8887 60.3555 36.0331 60.3555 34.6887C60.3555 33.8442 61.0888 33.4331 61.8666 33.4331C62.5777 33.4331 63.0666 33.6887 63.0666 33.6887V34.6887Z" fill="#F5B335"/>
</svg>
