<svg width="80" height="50" viewBox="0 0 80 50" fill="none" xmlns="http://www.w3.org/2000/svg">
<path d="M2.55831 35.3116H44.1367L44.9113 32.8237L0 32.8355L2.55831 35.3116Z" fill="#007934"/>
<path d="M5.19873 28.2239L7.76878 30.747L45.5567 30.7352L46.3312 28.2239H5.19873Z" fill="#007934"/>
<path d="M43.9841 26.2404L40.534 23.9167L10.6909 23.9285L13.0615 26.2404H43.9841Z" fill="#007934"/>
<path d="M37.2247 21.6873L33.0939 18.9177H13.5427L16.4062 21.6873H37.2247Z" fill="#007934"/>
<path d="M56.0247 0L49.9575 18.1898H32.0493L35.0888 20.2435L65.4364 20.2318L61.9862 22.837H27.5664L29.1507 24.7968H59.4044L56.1655 27.2261L21.3701 27.2378L23.3886 29.268L53.5015 29.2563L49.9105 31.9671L14.8218 32.0023L16.805 33.9622L47.2935 33.9504L43.7495 36.6378L41.1207 45.1577L56.0247 34.3846L70.9286 45.146L65.6007 27.8832L80 18.1781L62.0918 18.1898L56.0247 0Z" fill="#F5B335"/>
<path d="M37.8697 46.0919C37.8697 46.0333 37.8345 45.998 37.7524 45.998H37.635V46.3149H37.6819V46.1741H37.7406L37.8228 46.3149H37.8814L37.7876 46.1741C37.7876 46.1741 37.8697 46.1389 37.8697 46.0802V46.0919ZM37.6819 46.1389V46.045H37.7524C37.7524 46.045 37.8228 46.045 37.8228 46.0919C37.8228 46.1389 37.7876 46.1506 37.7406 46.1506H37.6819V46.1389Z" fill="#F5B335"/>
<path d="M2.05343 49.0377H0.0114746V45.8691H2.01822V46.2447H0.422211V47.2422H1.77178V47.6177H0.422211V48.6622H2.06516V49.0377H2.05343Z" fill="#F5B335"/>
<path d="M4.36509 46.3503C4.36509 46.3503 4.02477 46.2095 3.61403 46.2095C3.29717 46.2095 2.99205 46.3151 2.99205 46.6437C2.99205 47.3126 4.61153 47.1014 4.61153 48.1693C4.61153 48.6387 4.236 49.0964 3.4732 49.0964C2.94511 49.0964 2.56958 48.8617 2.56958 48.8617V48.4392C2.56958 48.4392 3.00378 48.7209 3.4732 48.7209C3.77832 48.7209 4.2008 48.5918 4.2008 48.1928C4.2008 47.4887 2.58132 47.6882 2.58132 46.6789C2.58132 46.1274 3.06246 45.8457 3.61403 45.8457C4.10691 45.8457 4.36509 45.9748 4.36509 45.9748V46.3503Z" fill="#F5B335"/>
<path d="M6.17246 46.2564V49.0494H5.77346V46.2564H4.89331V45.8809H7.06435V46.2564H6.1842H6.17246Z" fill="#F5B335"/>
<path d="M8.01502 47.4065H8.62527C9.01253 47.4065 9.25897 47.1248 9.25897 46.8197C9.25897 46.5146 9.01253 46.2447 8.6722 46.2447H7.97982V49.0377H7.58081V45.8691H8.66047C9.24724 45.8691 9.64624 46.2916 9.64624 46.808C9.64624 47.2774 9.24724 47.6999 8.74262 47.6999L9.90442 49.0377H9.37633L8.01502 47.4065Z" fill="#F5B335"/>
<path d="M12.4743 49.0377H10.4324V45.8691H12.4391V46.2447H10.8431V47.2422H12.1927V47.6177H10.8431V48.6622H12.4861V49.0377H12.4743Z" fill="#F5B335"/>
<path d="M14.9036 48.6622V49.0377H12.9907V45.8691H13.4015V48.6622H14.9036Z" fill="#F5B335"/>
<path d="M17.3445 48.6622V49.0377H15.4316V45.8691H15.8424V48.6622H17.3445Z" fill="#F5B335"/>
<path d="M21.71 49.0377V45.8691H22.6136C23.6815 45.8691 24.28 46.5263 24.28 47.4534C24.28 48.3805 23.6815 49.0377 22.6136 49.0377H21.71ZM22.2733 48.5331H22.6253C23.3294 48.5331 23.705 48.0754 23.705 47.4652C23.705 46.8549 23.3177 46.3972 22.6253 46.3972H22.2733V48.5331Z" fill="#F5B335"/>
<path d="M26.9442 49.0377H24.7966V45.8691H26.909V46.3972H25.3599V47.16H26.6626V47.6881H25.3599V48.4861H26.9442V49.0142V49.0377Z" fill="#F5B335"/>
<path d="M29.6198 45.8337C30.5351 45.8337 31.2627 46.5613 31.2627 47.4532C31.2627 48.3451 30.5351 49.0844 29.6198 49.0844C28.7044 49.0844 27.9768 48.3568 27.9768 47.4532C27.9768 46.5496 28.7161 45.8337 29.6198 45.8337ZM29.6198 48.5681C30.2183 48.5681 30.7111 48.0635 30.7111 47.4532C30.7111 46.843 30.2183 46.3501 29.6198 46.3501C29.0213 46.3501 28.5284 46.8547 28.5284 47.4532C28.5284 48.0517 29.0213 48.5681 29.6198 48.5681Z" fill="#F5B335"/>
<path d="M35.9335 45.8337C36.8488 45.8337 37.5764 46.5613 37.5764 47.4532C37.5764 48.3451 36.8488 49.0844 35.9335 49.0844C35.0181 49.0844 34.2905 48.3568 34.2905 47.4532C34.2905 46.5496 35.0298 45.8337 35.9335 45.8337ZM35.9335 48.5681C36.532 48.5681 37.0249 48.0635 37.0249 47.4532C37.0249 46.843 36.532 46.3501 35.9335 46.3501C35.335 46.3501 34.8421 46.8547 34.8421 47.4532C34.8421 48.0517 35.335 48.5681 35.9335 48.5681Z" fill="#F5B335"/>
<path d="M32.2366 49.0494H31.6851V45.8809H32.8703C33.4923 45.8809 33.8678 46.3151 33.8678 46.8314C33.8678 47.3008 33.5627 47.6294 33.1872 47.7468L34.1377 49.0494H33.4102L32.2953 47.3595H32.753C33.1402 47.3595 33.328 47.1248 33.328 46.8784C33.328 46.6319 33.1285 46.3972 32.8586 46.3972H32.2366V49.0377V49.0494Z" fill="#F5B335"/>
<path d="M19.1164 45.7634L17.7668 49.0376H18.2011L18.4592 48.3804L18.6001 48.0049L19.1164 46.6788L19.621 48.0049H18.6001L18.7409 48.3687H19.7619L20.02 49.0376H20.4542L19.1164 45.7634Z" fill="#F5B335"/>
<path d="M37.7523 45.8809C37.5998 45.8809 37.4707 45.9982 37.4707 46.1625C37.4707 46.3268 37.5998 46.4442 37.7523 46.4442C37.9049 46.4442 38.034 46.3151 38.034 46.1625C38.034 46.0099 37.9049 45.8809 37.7523 45.8809ZM37.7523 46.3855C37.635 46.3855 37.5294 46.2916 37.5294 46.1625C37.5294 46.0334 37.6233 45.9395 37.7523 45.9395C37.8814 45.9395 37.9753 46.0334 37.9753 46.1625C37.9753 46.2916 37.8814 46.3855 37.7523 46.3855Z" fill="#F5B335"/>
</svg>
